<svg width="1641" height="284" viewBox="0 0 1641 284" fill="none" xmlns="http://www.w3.org/2000/svg">
<path d="M113.362 87.7076C112.316 81.8226 114.425 74.8949 113.066 68.0734C112.438 64.9197 109.841 63.6105 106.947 63.3596C104.244 63.1253 101.488 65.6448 100.984 68.9615C100.406 72.7656 100.073 76.6499 100.106 80.4951C100.161 86.9341 100.585 93.3698 100.868 99.8067C100.965 102.016 100.916 104.256 101.269 106.427C101.898 110.303 103.895 111.968 107.558 112.065C111.418 112.167 113.347 110.861 114.035 106.805C115.047 100.839 112.43 94.8632 113.362 87.7076ZM187.25 80.7082C187.25 80.7464 187.244 80.67 187.25 80.7082C188.488 89.1085 188.106 94.2337 189.566 102.159C190.145 105.3 192.357 107.293 195.787 107.469C198.997 107.633 201.723 105.949 202.911 102.489C203.737 100.085 204.212 97.4888 204.39 94.9469C205.055 85.5023 204.505 76.1642 200.717 67.3182C199.586 64.6807 197.824 62.6927 194.434 62.8616C191.001 63.0331 188.763 64.8454 187.835 67.8323C186.816 71.1129 187.211 75.4039 187.25 80.7082ZM145.083 247.425C149.328 247.09 153.918 246.672 158.517 246.375C173.627 245.399 187.885 241.207 201.38 234.537C219.216 225.722 234.178 213.228 246.302 197.474C262.759 176.09 272.828 152.002 275.616 125.061C275.949 121.845 275.351 118.392 274.492 115.239C273.811 112.74 271.92 110.818 268.848 110.669C265.787 110.52 263.866 112.065 262.893 114.68C261.87 117.426 261.034 120.281 260.488 123.16C257.449 139.183 253.295 154.822 245.091 169.098C233.252 189.699 217.838 206.798 196.484 217.82C174.482 229.176 151.172 232.482 126.709 228.835C107.216 225.929 90.1189 218.07 75.007 205.49C63.9426 196.28 56.6702 184.387 50.2923 171.783C49.4602 170.139 48.804 168.251 47.5335 167.033C46.5059 166.048 44.4783 165.226 43.262 165.583C42.1552 165.909 40.8897 167.897 40.8428 169.194C40.7308 172.295 40.8874 175.525 41.6561 178.518C45.4554 193.306 54.0419 205.341 64.8451 215.616C87.14 236.823 114.299 246.292 145.083 247.425ZM129.448 283.934C104.131 283.797 86.3926 280.531 70.6075 269.955C58.6101 261.917 48.7035 251.644 41.0355 239.56C32.6419 226.331 25.2051 212.49 17.4785 198.844C13.9322 192.581 10.9834 185.967 7.24499 179.83C0.66969 169.035 -0.754119 157.218 0.327162 145.11C2.08333 125.448 8.27427 106.94 15.9105 88.819C18.5937 82.453 22.6611 77.4891 27.5644 72.9277C43.5444 58.0621 59.9374 43.6965 78.3314 31.8448C97.3324 19.6023 117.236 9.41793 139.399 3.9202C171.669 -4.08444 202.16 0.0344882 230.308 17.52C258.24 34.8718 279.636 58.4811 293.168 88.7506C299.547 103.022 302.938 118.033 304.028 133.69C306.177 164.557 298.755 192.955 283.119 219.412C273.841 235.11 259.963 245.555 244.016 253.531C219.136 265.973 192.985 274.796 165.576 279.44C151.432 281.837 137.083 283.01 129.448 283.934Z" fill="#F08D13"/>
<path d="M452.579 79.2144C464.563 79.2144 473.775 81.8179 480.218 87.0254C486.776 92.2329 490.053 99.1381 490.053 107.742C490.053 111.138 489.545 114.704 488.527 118.439C485.36 129.76 479.086 138.137 469.705 143.571C460.434 149.005 448.679 151.721 434.435 151.721H416.969L411.204 172.268C410.978 172.947 410.865 173.853 410.865 174.985C410.865 176.569 411.204 177.871 411.882 178.89C412.674 179.909 413.804 181.098 415.273 182.456C416.517 183.588 417.365 184.437 417.817 185.003C418.269 185.569 418.495 186.248 418.495 187.041C418.495 188.965 417.591 190.324 415.782 191.116C413.973 191.909 411.317 192.305 407.812 192.305H365.251C362.312 192.305 360.107 191.796 358.638 190.777C357.168 189.645 356.659 188.116 357.111 186.192C357.337 185.173 357.79 184.381 358.468 183.815C359.033 183.135 359.938 182.4 361.181 181.607C363.103 180.475 364.629 179.286 365.759 178.041C366.89 176.796 367.794 174.871 368.473 172.268L389.16 99.0816C389.612 97.6098 389.838 96.1949 389.838 94.8365C389.838 93.5914 389.612 92.5725 389.16 91.78C388.821 90.8745 388.312 89.8557 387.634 88.7235C386.616 87.2517 386.108 86.0631 386.108 85.1576C386.108 84.818 386.221 84.1952 386.447 83.2897C386.899 81.8179 387.86 80.7991 389.329 80.2332C390.912 79.554 393.286 79.2144 396.451 79.2144H452.579ZM448.17 115.383C449.412 111.194 450.035 107.515 450.035 104.346C450.035 97.7796 446.983 94.4969 440.878 94.4969H433.248L421.208 136.439H428.669C433.417 136.439 437.262 134.967 440.2 132.024C443.252 128.967 445.91 123.42 448.17 115.383ZM556.8 102.478C563.129 102.478 568.161 104.402 571.891 108.251C575.732 112.1 577.657 116.855 577.657 122.515C577.657 124.666 577.428 126.647 576.978 128.458C575.846 133.099 573.697 136.665 570.535 139.156C567.368 141.646 563.582 142.891 559.174 142.891C554.875 142.891 551.598 141.873 549.339 139.835C547.189 137.797 545.269 135.08 543.573 131.684C542.666 129.76 541.818 128.345 541.03 127.439C540.237 126.534 539.334 126.081 538.317 126.081C537.185 126.081 536.167 126.534 535.264 127.439C534.472 128.345 533.738 129.93 533.06 132.194L520.003 174.645C519.774 175.211 519.664 176.06 519.664 177.192C519.664 178.664 520.058 179.909 520.851 180.928C521.754 181.833 522.941 182.739 524.412 183.645C525.769 184.55 526.672 185.286 527.125 185.852C527.574 186.418 527.744 187.154 527.634 188.06C527.405 189.532 526.557 190.607 525.09 191.286C523.734 191.965 521.36 192.305 517.968 192.305H474.559C471.617 192.305 469.527 191.852 468.285 190.947C466.928 189.928 466.42 188.626 466.759 187.041C467.208 185.683 468.395 184.494 470.32 183.475C472.015 182.57 473.427 181.494 474.559 180.249C475.687 179.004 476.649 177.022 477.442 174.306L492.533 125.232C492.758 124.666 492.872 123.873 492.872 122.854C492.872 121.609 492.588 120.647 492.024 119.968C491.571 119.289 490.778 118.439 489.651 117.421C488.519 116.515 487.726 115.723 487.277 115.043C486.823 114.364 486.768 113.459 487.107 112.326C487.785 109.723 491.346 107.459 497.79 105.534C504.233 103.497 510.957 102.478 517.968 102.478C522.602 102.478 526.447 103.553 529.499 105.704C532.551 107.742 534.527 110.685 535.434 114.534C540.86 106.497 547.982 102.478 556.8 102.478ZM633.97 102.478C649.342 102.478 660.648 105.591 667.884 111.817C675.231 118.043 678.906 126.194 678.906 136.269C678.906 139.665 678.452 143.457 677.549 147.646C675.4 156.929 671.386 165.08 665.51 172.098C659.63 179.004 652.394 184.381 643.805 188.23C635.327 191.965 626.111 193.833 616.166 193.833C600.451 193.833 588.806 190.72 581.234 184.494C573.773 178.155 570.043 169.777 570.043 159.363C570.043 155.853 570.492 151.948 571.4 147.646C573.545 138.816 577.614 131.005 583.608 124.213C589.713 117.307 597.115 111.987 605.822 108.251C614.639 104.402 624.021 102.478 633.97 102.478ZM633.462 117.59C631.088 117.59 628.544 119.741 625.831 124.043C623.228 128.232 620.121 136.213 616.505 147.986C612.884 159.759 611.079 168.023 611.079 172.777C611.079 175.268 611.473 176.966 612.266 177.871C613.054 178.664 614.131 179.06 615.487 179.06C617.861 179.286 620.29 177.249 622.779 172.947C625.377 168.645 628.599 160.268 632.444 147.816C635.946 136.835 637.701 128.854 637.701 123.873C637.701 121.496 637.302 119.854 636.514 118.949C635.836 118.043 634.818 117.59 633.462 117.59ZM741.858 102.478C757.23 102.478 768.536 105.591 775.772 111.817C783.119 118.043 786.794 126.194 786.794 136.269C786.794 139.665 786.34 143.457 785.437 147.646C783.288 156.929 779.274 165.08 773.398 172.098C767.518 179.004 760.282 184.381 751.693 188.23C743.215 191.965 733.999 193.833 724.054 193.833C708.339 193.833 696.694 190.72 689.123 184.494C681.661 178.155 677.931 169.777 677.931 159.363C677.931 155.853 678.38 151.948 679.288 147.646C681.433 138.816 685.502 131.005 691.496 124.213C697.601 117.307 705.003 111.987 713.71 108.251C722.528 104.402 731.909 102.478 741.858 102.478ZM741.35 117.59C738.976 117.59 736.432 119.741 733.719 124.043C731.116 128.232 728.009 136.213 724.393 147.986C720.773 159.759 718.967 168.023 718.967 172.777C718.967 175.268 719.361 176.966 720.154 177.871C720.942 178.664 722.019 179.06 723.375 179.06C725.749 179.286 728.178 177.249 730.667 172.947C733.265 168.645 736.487 160.268 740.332 147.816C743.834 136.835 745.589 128.854 745.589 123.873C745.589 121.496 745.19 119.854 744.402 118.949C743.724 118.043 742.706 117.59 741.35 117.59ZM853.307 66.8185C865.402 66.8185 874.444 68.6864 880.438 72.4221C886.543 76.0445 889.595 80.5163 889.595 85.8368C889.595 90.1384 887.785 93.478 884.169 95.8553C880.663 98.1193 876.029 99.2514 870.264 99.2514C864.948 99.2514 860.823 97.9495 857.886 95.3459C854.944 92.7424 853.477 89.5161 853.477 85.667C853.477 83.2897 854.21 80.7991 855.681 78.1955C852.29 78.1955 849.462 79.0446 847.203 80.7426C844.939 82.3273 843.188 85.1011 841.946 89.0631C841.268 91.5537 840.929 93.8741 840.929 96.0251C840.929 98.742 841.378 100.893 842.285 102.478C843.303 103.95 844.714 104.685 846.525 104.685H856.529C862.405 104.685 865.347 106.497 865.347 110.119C865.347 110.572 865.232 111.251 865.008 112.157C864.329 114.647 862.913 116.515 860.768 117.76C858.734 119.005 855.622 119.628 851.442 119.628H846.355L829.568 174.645C829.229 176.004 829.059 177.192 829.059 178.211C829.059 179.683 829.339 180.872 829.907 181.777C830.471 182.57 831.263 183.362 832.281 184.154C833.069 184.947 833.637 185.626 833.977 186.192C834.316 186.645 834.371 187.267 834.146 188.06C833.578 189.532 832.45 190.607 830.755 191.286C829.059 191.965 826.456 192.305 822.955 192.305H784.293C781.351 192.305 779.206 191.852 777.849 190.947C776.493 189.928 776.039 188.626 776.493 187.041C776.942 185.683 778.129 184.494 780.054 183.475C781.749 182.57 783.161 181.494 784.293 180.249C785.421 179.004 786.383 177.022 787.176 174.306L800.402 130.835C800.966 129.137 801.25 127.383 801.25 125.571C801.25 123.307 800.741 121.552 799.724 120.307C798.816 118.949 797.405 117.477 795.484 115.892C794.238 114.874 793.28 114.025 792.602 113.345C792.034 112.553 791.754 111.647 791.754 110.628C791.639 108.477 792.373 106.949 793.958 106.044C795.654 105.138 798.816 104.685 803.454 104.685H807.693C806.901 101.855 806.506 99.0252 806.506 96.1949C806.506 93.3647 807.015 90.4215 808.033 87.365C810.178 81.5916 814.756 76.7237 821.768 72.7617C828.889 68.7998 839.403 66.8185 853.307 66.8185ZM947.452 102.478C962.827 102.478 974.133 105.591 981.366 111.817C988.716 118.043 992.387 126.194 992.387 136.269C992.387 139.665 991.938 143.457 991.031 147.646C988.886 156.929 984.871 165.08 978.992 172.098C973.116 179.004 965.88 184.381 957.287 188.23C948.808 191.965 939.597 193.833 929.647 193.833C913.937 193.833 902.291 190.72 894.716 184.494C887.255 178.155 883.524 169.777 883.524 159.363C883.524 155.853 883.978 151.948 884.881 147.646C887.03 138.816 891.1 131.005 897.09 124.213C903.194 117.307 910.6 111.987 919.303 108.251C928.121 104.402 937.507 102.478 947.452 102.478ZM946.943 117.59C944.569 117.59 942.026 119.741 939.313 124.043C936.714 128.232 933.607 136.213 929.986 147.986C926.37 159.759 924.56 168.023 924.56 172.777C924.56 175.268 924.959 176.966 925.747 177.871C926.54 178.664 927.612 179.06 928.969 179.06C931.343 179.286 933.776 177.249 936.26 172.947C938.863 168.645 942.085 160.268 945.926 147.816C949.432 136.835 951.182 128.854 951.182 123.873C951.182 121.496 950.788 119.854 949.995 118.949C949.317 118.043 948.3 117.59 946.943 117.59ZM1058.9 66.8185C1071 66.8185 1080.04 68.6864 1086.03 72.4221C1092.14 76.0445 1095.19 80.5163 1095.19 85.8368C1095.19 90.1384 1093.38 93.478 1089.76 95.8553C1086.26 98.1193 1081.62 99.2514 1075.86 99.2514C1070.55 99.2514 1066.42 97.9495 1063.48 95.3459C1060.54 92.7424 1059.07 89.5161 1059.07 85.667C1059.07 83.2897 1059.81 80.7991 1061.27 78.1955C1057.88 78.1955 1055.06 79.0446 1052.8 80.7426C1050.54 82.3273 1048.79 85.1011 1047.54 89.0631C1046.86 91.5537 1046.52 93.8741 1046.52 96.0251C1046.52 98.742 1046.98 100.893 1047.88 102.478C1048.9 103.95 1050.31 104.685 1052.12 104.685H1062.12C1068 104.685 1070.94 106.497 1070.94 110.119C1070.94 110.572 1070.83 111.251 1070.6 112.157C1069.92 114.647 1068.51 116.515 1066.36 117.76C1064.33 119.005 1061.22 119.628 1057.04 119.628H1051.95L1035.16 174.645C1034.82 176.004 1034.65 177.192 1034.65 178.211C1034.65 179.683 1034.94 180.872 1035.5 181.777C1036.07 182.57 1036.86 183.362 1037.87 184.154C1038.67 184.947 1039.23 185.626 1039.57 186.192C1039.91 186.645 1039.97 187.267 1039.74 188.06C1039.18 189.532 1038.04 190.607 1036.35 191.286C1034.65 191.965 1032.05 192.305 1028.55 192.305H989.886C986.949 192.305 984.799 191.852 983.443 190.947C982.086 189.928 981.637 188.626 982.086 187.041C982.54 185.683 983.727 184.494 985.647 183.475C987.343 182.57 988.759 181.494 989.886 180.249C991.018 179.004 991.981 177.022 992.769 174.306L1006 130.835C1006.56 129.137 1006.84 127.383 1006.84 125.571C1006.84 123.307 1006.33 121.552 1005.32 120.307C1004.41 118.949 1003 117.477 1001.08 115.892C999.836 114.874 998.873 114.025 998.195 113.345C997.631 112.553 997.347 111.647 997.347 110.628C997.237 108.477 997.971 106.949 999.552 106.044C1001.25 105.138 1004.41 104.685 1009.05 104.685H1013.29C1012.5 101.855 1012.1 99.0252 1012.1 96.1949C1012.1 93.3647 1012.61 90.4215 1013.63 87.365C1015.78 81.5916 1020.35 76.7237 1027.36 72.7617C1034.48 68.7998 1045 66.8185 1058.9 66.8185ZM1231.73 95.5157C1231.73 99.591 1230.82 103.101 1229.02 106.044C1227.32 108.987 1225.12 111.251 1222.4 112.836C1219.69 114.308 1216.98 115.043 1214.26 115.043C1211.55 115.043 1209.06 114.477 1206.8 113.345C1204.65 112.213 1202.84 110.685 1201.38 108.761L1160.51 177.702C1157.46 182.909 1154.63 186.645 1152.03 188.909C1149.43 191.173 1146.49 192.305 1143.21 192.305C1139.71 192.305 1136.88 191.173 1134.74 188.909C1132.7 186.532 1131.23 182.796 1130.33 177.702L1116.08 99.2514C1115.74 97.2138 1115.12 95.5722 1114.22 94.3271C1113.31 93.082 1112.12 91.7235 1110.66 90.2517C1109.53 89.2329 1108.73 88.4403 1108.28 87.8745C1107.83 87.1952 1107.61 86.4027 1107.61 85.4972C1107.04 81.3085 1109.53 79.2144 1115.07 79.2144H1157.46C1160.06 79.2144 1162.04 79.7802 1163.39 80.9124C1164.75 81.9313 1165.37 83.3462 1165.26 85.1576C1165.26 86.1764 1165.03 87.0254 1164.58 87.7046C1164.24 88.3839 1163.62 89.2329 1162.71 90.2517C1161.7 91.3839 1160.9 92.4592 1160.34 93.478C1159.77 94.4969 1159.49 95.742 1159.49 97.2138C1159.49 97.893 1159.55 98.4589 1159.66 98.9118L1166.11 138.477L1188.66 98.4024C1192.61 91.1572 1196.51 86.0631 1200.36 83.1199C1204.2 80.0634 1208.95 78.5351 1214.6 78.5351C1219.8 78.5351 1223.93 80.0634 1226.98 83.1199C1230.14 86.0631 1231.73 90.1953 1231.73 95.5157ZM1252.99 102.478C1259.55 102.478 1264.35 103.723 1267.41 106.213C1270.46 108.704 1271.98 112.1 1271.98 116.402C1271.98 119.005 1271.59 121.496 1270.8 123.873L1255.2 174.645C1254.86 176.004 1254.69 177.192 1254.69 178.211C1254.69 179.683 1254.97 180.872 1255.54 181.777C1256.1 182.57 1256.89 183.362 1257.91 184.154C1258.7 184.947 1259.27 185.626 1259.61 186.192C1259.95 186.645 1260 187.267 1259.78 188.06C1259.21 189.532 1258.08 190.607 1256.38 191.286C1254.69 191.965 1252.09 192.305 1248.58 192.305H1209.92C1206.98 192.305 1204.84 191.852 1203.48 190.947C1202.12 189.928 1201.67 188.626 1202.12 187.041C1202.57 185.683 1203.76 184.494 1205.68 183.475C1207.38 182.57 1208.79 181.494 1209.92 180.249C1211.05 179.004 1212.01 177.022 1212.81 174.306L1227.56 125.232C1227.9 124.213 1228.07 123.364 1228.07 122.685C1228.07 121.44 1227.78 120.477 1227.22 119.798C1226.65 119.005 1225.8 118.213 1224.68 117.421C1223.54 116.515 1222.75 115.723 1222.3 115.043C1221.85 114.364 1221.79 113.459 1222.13 112.326C1222.81 109.723 1226.37 107.459 1232.81 105.534C1239.26 103.497 1245.98 102.478 1252.99 102.478ZM1264.35 64.9507C1268.76 64.9507 1272.43 66.4225 1275.38 69.3656C1278.31 72.1959 1279.78 75.7049 1279.78 79.8936C1279.78 82.8367 1278.99 85.7234 1277.41 88.5537C1275.94 91.3839 1273.79 93.7043 1270.97 95.5157C1268.25 97.2138 1265.2 98.0628 1261.81 98.0628C1257.51 98.0628 1253.9 96.6479 1250.96 93.8177C1248.13 90.8745 1246.66 87.2517 1246.55 82.9501C1246.55 80.1198 1247.28 77.3465 1248.75 74.6296C1250.22 71.7994 1252.31 69.479 1255.03 67.6676C1257.74 65.8562 1260.85 64.9507 1264.35 64.9507ZM1353.58 101.799C1361.95 101.799 1368.62 104.799 1373.59 110.798C1378.68 116.798 1381.22 124.722 1381.22 134.571C1381.22 139.665 1380.6 144.646 1379.36 149.514C1375.74 164.117 1369.52 175.155 1360.7 182.626C1352 190.097 1341.94 193.833 1330.52 193.833C1324.08 193.833 1318.48 192.758 1313.73 190.607C1309.1 188.343 1305.37 185.173 1302.54 181.098L1296.44 186.362C1294.06 188.399 1291.74 189.928 1289.48 190.947C1287.22 191.852 1284.62 192.305 1281.68 192.305H1274.22C1271.4 192.305 1269.19 191.739 1267.61 190.607C1266.14 189.362 1265.41 187.607 1265.41 185.343C1265.41 184.324 1265.58 183.135 1265.91 181.777L1294.23 89.5725C1294.57 88.5537 1294.74 87.7046 1294.74 87.0254C1294.74 85.1011 1293.55 83.2897 1291.18 81.5916C1290.05 80.5728 1289.26 79.7802 1288.81 79.2144C1288.35 78.5351 1288.3 77.6861 1288.64 76.6673C1289.43 74.0637 1292.99 71.7994 1299.32 69.8751C1305.76 67.8374 1312.49 66.8185 1319.5 66.8185C1326.06 66.8185 1330.86 68.1205 1333.91 70.7241C1337.08 73.2147 1338.66 76.6108 1338.66 80.9124C1338.66 83.2897 1338.26 85.667 1337.47 88.0443L1330.35 111.138C1336.91 104.911 1344.65 101.799 1353.58 101.799ZM1334.42 148.495C1336.68 140.797 1337.81 134.571 1337.81 129.816C1337.81 124.609 1336.29 122.005 1333.23 122.005C1330.52 122.005 1327.98 123.42 1325.6 126.251L1314.58 162.249L1313.56 165.476C1313 167.174 1312.72 168.928 1312.72 170.74C1312.72 174.702 1314.58 176.683 1318.31 176.683C1321.02 176.683 1323.62 174.702 1326.11 170.74C1328.6 166.778 1331.37 159.363 1334.42 148.495ZM1435.95 101.629C1450.31 101.629 1460.71 103.95 1467.15 108.591C1473.59 113.119 1476.82 118.949 1476.82 126.081C1476.82 128.232 1476.59 130.213 1476.14 132.024C1474.44 139.495 1469.69 144.873 1461.89 148.155C1454.21 151.325 1445.11 152.91 1434.59 152.91C1429.28 152.91 1424.31 152.57 1419.67 151.891C1419.56 157.778 1421.14 161.91 1424.42 164.287C1427.7 166.664 1432.28 167.853 1438.15 167.853C1440.87 167.853 1443.47 167.57 1445.95 167.004C1448.44 166.325 1451.61 165.362 1455.45 164.117C1458.62 162.985 1460.77 162.419 1461.89 162.419C1463.14 162.419 1463.76 163.155 1463.76 164.627C1463.87 168.589 1462.4 172.777 1459.35 177.192C1456.3 181.494 1451.78 185.173 1445.78 188.23C1439.79 191.286 1432.56 192.814 1424.08 192.814C1411.53 192.814 1401.25 189.645 1393.22 183.305C1385.19 176.966 1381.18 167.74 1381.18 155.627C1381.18 152.231 1381.63 148.269 1382.54 143.741C1385.36 129.816 1391.52 119.345 1401.02 112.326C1410.63 105.195 1422.27 101.629 1435.95 101.629ZM1420.86 141.703C1421.31 141.816 1421.93 141.873 1422.72 141.873C1427.47 141.873 1431.09 139.665 1433.58 135.25C1436.06 130.835 1437.25 125.911 1437.14 120.477C1437.03 117.307 1436.12 115.723 1434.42 115.723C1433.18 115.723 1431.71 116.741 1430.01 118.779C1428.32 120.703 1426.62 123.647 1424.93 127.609C1423.35 131.571 1421.99 136.269 1420.86 141.703ZM1525.75 100.949C1535.13 100.949 1543.21 101.799 1550 103.497C1556.89 105.195 1562.15 107.572 1565.77 110.628C1569.5 113.685 1571.36 117.137 1571.36 120.987C1571.36 124.949 1569.78 128.175 1566.61 130.665C1563.56 133.156 1559.27 134.401 1553.73 134.401C1548.08 134.401 1543.27 132.986 1539.31 130.156C1535.47 127.326 1533.55 123.76 1533.55 119.458C1533.55 117.987 1533.77 116.572 1534.23 115.213C1532.19 114.647 1530.38 114.364 1528.8 114.364C1525.97 114.364 1523.6 115.043 1521.68 116.402C1519.87 117.76 1519.02 119.685 1519.14 122.175C1519.14 125.118 1520.61 127.609 1523.54 129.647C1526.48 131.684 1531.23 134.231 1537.79 137.288C1543.44 139.779 1548.08 142.099 1551.69 144.25C1555.42 146.288 1558.53 148.891 1561.02 152.061C1563.62 155.231 1564.92 158.967 1564.92 163.268C1564.92 164.174 1564.69 165.872 1564.24 168.362C1562.43 175.947 1557.4 181.947 1549.15 186.362C1540.9 190.777 1530.04 192.984 1516.59 192.984C1501.45 192.984 1489.41 190.947 1480.47 186.871C1471.66 182.796 1467.25 177.192 1467.25 170.06C1467.25 165.193 1468.72 161.514 1471.66 159.023C1474.59 156.532 1478.49 155.287 1483.36 155.287C1489.01 155.287 1493.81 157.042 1497.77 160.551C1501.84 164.061 1503.87 168.532 1503.87 173.966C1503.87 175.438 1503.7 176.966 1503.37 178.551C1506.08 179.23 1508.68 179.57 1511.17 179.57C1514.1 179.57 1516.54 178.777 1518.46 177.192C1520.38 175.608 1521.34 173.4 1521.34 170.57C1521.23 167.966 1519.93 165.759 1517.44 163.947C1514.95 162.023 1511 159.759 1505.57 157.155C1500.48 154.778 1496.3 152.57 1493.02 150.533C1489.74 148.382 1486.92 145.722 1484.54 142.552C1482.28 139.382 1481.15 135.646 1481.15 131.345C1481.15 122.062 1485 114.704 1492.68 109.27C1500.48 103.723 1511.5 100.949 1525.75 100.949Z" fill="black"/>
</svg>
