<svg width="305" height="284" viewBox="0 0 305 284" fill="none" xmlns="http://www.w3.org/2000/svg">
<path d="M113.362 87.7076C112.316 81.8226 114.425 74.8949 113.066 68.0734C112.438 64.9197 109.841 63.6105 106.947 63.3596C104.244 63.1253 101.488 65.6448 100.984 68.9615C100.406 72.7656 100.073 76.6499 100.106 80.4951C100.161 86.9341 100.585 93.3698 100.868 99.8067C100.965 102.016 100.916 104.256 101.269 106.427C101.898 110.303 103.895 111.968 107.558 112.065C111.418 112.167 113.347 110.861 114.035 106.805C115.047 100.839 112.43 94.8632 113.362 87.7076ZM187.25 80.7082C187.25 80.7464 187.244 80.67 187.25 80.7082C188.488 89.1085 188.106 94.2337 189.566 102.159C190.145 105.3 192.357 107.293 195.787 107.469C198.997 107.633 201.723 105.949 202.911 102.489C203.737 100.085 204.212 97.4888 204.39 94.9469C205.055 85.5023 204.505 76.1642 200.717 67.3182C199.586 64.6807 197.824 62.6927 194.434 62.8616C191.001 63.0331 188.763 64.8454 187.835 67.8323C186.816 71.1129 187.211 75.4039 187.25 80.7082ZM145.083 247.425C149.328 247.09 153.918 246.672 158.517 246.375C173.627 245.399 187.885 241.207 201.38 234.537C219.216 225.722 234.178 213.228 246.302 197.474C262.759 176.09 272.828 152.002 275.616 125.061C275.949 121.845 275.351 118.392 274.492 115.239C273.811 112.74 271.92 110.818 268.848 110.669C265.787 110.52 263.866 112.065 262.893 114.68C261.87 117.426 261.034 120.281 260.488 123.16C257.449 139.183 253.295 154.822 245.091 169.098C233.252 189.699 217.838 206.798 196.484 217.82C174.482 229.176 151.172 232.482 126.709 228.835C107.216 225.929 90.1189 218.07 75.007 205.49C63.9426 196.28 56.6702 184.387 50.2923 171.783C49.4602 170.139 48.804 168.251 47.5335 167.033C46.5059 166.048 44.4783 165.226 43.262 165.583C42.1552 165.909 40.8897 167.897 40.8428 169.194C40.7308 172.295 40.8874 175.525 41.6561 178.518C45.4554 193.306 54.0419 205.341 64.8451 215.616C87.14 236.823 114.299 246.292 145.083 247.425ZM129.448 283.934C104.131 283.797 86.3926 280.531 70.6075 269.955C58.6101 261.917 48.7035 251.644 41.0355 239.56C32.6419 226.331 25.2051 212.49 17.4785 198.844C13.9322 192.581 10.9834 185.967 7.24499 179.83C0.66969 169.035 -0.754119 157.218 0.327162 145.11C2.08333 125.448 8.27427 106.94 15.9105 88.819C18.5937 82.453 22.6611 77.4891 27.5644 72.9277C43.5444 58.0621 59.9374 43.6965 78.3314 31.8448C97.3324 19.6023 117.236 9.41793 139.399 3.9202C171.669 -4.08444 202.16 0.0344882 230.308 17.52C258.24 34.8718 279.636 58.4811 293.168 88.7506C299.547 103.022 302.938 118.033 304.028 133.69C306.177 164.557 298.755 192.955 283.119 219.412C273.841 235.11 259.963 245.555 244.016 253.531C219.136 265.973 192.985 274.796 165.576 279.44C151.432 281.837 137.083 283.01 129.448 283.934Z" fill="#F08D13"/>
</svg>
